<?xml version="1.0" encoding="utf-8"?>
<!-- Generator: Adobe Illustrator 19.2.0, SVG Export Plug-In . SVG Version: 6.00 Build 0)  -->
<svg version="1.1" id="Layer_1" xmlns="http://www.w3.org/2000/svg" xmlns:xlink="http://www.w3.org/1999/xlink" x="0px" y="0px"
	 viewBox="0 0 1500 970" style="enable-background:new 0 0 1500 970;" xml:space="preserve">
<style type="text/css">
	.st0{fill:#F26101;}
	.st1{opacity:0.8;}
	.st2{clip-path:url(#SVGID_2_);}
	.st3{fill:#F47934;}
</style>
<title>orange-background</title>
<path class="st0" d="M1500,0L0,0v970l685.8-249.3c0,0,499.6-196.4,548.2-277.8"/>
<g class="st1">
	<g>
		<defs>
			<path id="SVGID_1_" d="M16.7,561.7l1137.4,50.9c0,0,76.7-16.4,125.3-97.8l206-395.9c0,0,61-119-67.1-119H0L16.7,561.7z"/>
		</defs>
		<use xlink:href="#SVGID_1_"  style="overflow:visible;fill:#F26101;"/>
		<clipPath id="SVGID_2_">
			<use xlink:href="#SVGID_1_"  style="overflow:visible;"/>
		</clipPath>
		<g class="st2">
			<path class="st3" d="M-72.5,276.8c0.7-3-20.3-295.3-20.3-295.3s-11.6-73,18.4-103l67.4-61.3c0,0,37.4-31.4,80.7,8.2L226.9-49.7
				l148.6,458.5L-72.5,276.8z"/>
		</g>
	</g>
</g>
</svg>
