<?xml version="1.0" encoding="utf-8"?>
<!-- Generator: Adobe Illustrator 19.2.0, SVG Export Plug-In . SVG Version: 6.00 Build 0)  -->
<svg version="1.1" xmlns="http://www.w3.org/2000/svg" xmlns:xlink="http://www.w3.org/1999/xlink" x="0px" y="0px"
	 viewBox="0 0 1500 970" style="enable-background:new 0 0 1500 970;" xml:space="preserve">
<style type="text/css">
	.st0{display:none;}
	.st1{display:inline;}
	.st2{fill:none;}
	.st3{fill:#F26101;}
</style>
<g id="Layer_1">
	<title>orange-background</title>
</g>
<g id="Layer_2" class="st0">
	<g class="st1">
		<path class="st2" d="M727.8,438.7c0-200.5,161-371.1,386-435.1H0V970h1122.9C893.1,881,727.8,641.9,727.8,438.7z"/>
		<path class="st2" d="M1497.8,970h9.1v-3.6C1503.9,967.6,1500.8,968.8,1497.8,970z"/>
		<path class="st3" d="M1506.9,3.6h-620c-225,64-726.1,339.6-726.1,540.1c0,203.2,853.4,262,1083.1,351l253.9,75.2
			c3-1.2,6.1-2.4,9.1-3.6V3.6z"/>
	</g>
	<g class="st1">
		<path class="st2" d="M720.9,436.9c0-200.5,161-371.1,386-435.1H-6.9v966.4H1116C886.3,879.1,720.9,640.1,720.9,436.9z"/>
		<path class="st2" d="M1490.9,968.2h9.1v-3.6C1497,965.8,1494,967,1490.9,968.2z"/>
		<path class="st3" d="M1500,1.8H880c-225,64-726.1,339.6-726.1,540.1c0,203.2,853.4,262,1083.1,351l253.9,75.2
			c3-1.2,6.1-2.4,9.1-3.6V1.8z"/>
	</g>
</g>
<g id="Layer_3">
	<g>
		<path class="st2" d="M0,0v970h130.3C171.9,805.4,334,630.7,466.8,630.7c111.3,0,317.8,174.2,423.3,339.3H1500V0H0z"/>
		<path class="st3" d="M436.8,444.7C304,444.7,171.9,805.4,130.3,970h759.7C1009.8,609.7,548.1,444.7,436.8,444.7z"/>
	</g>
</g>
</svg>
